<?xml version="1.0" encoding="UTF-8" standalone="no"?>
<!-- Created with Inkscape (http://www.inkscape.org/) -->
<svg width="163.20047mm" height="166.20969mm" viewBox="0 0 163.20047 166.20969" version="1.1" id="svg5" inkscape:version="1.2 (dc2aedaf03, 2022-05-15)" sodipodi:docname="lemon.svg" inkscape:export-filename="../Lemon_alt/data/lemon.svg" inkscape:export-xdpi="96" inkscape:export-ydpi="96" xmlns:inkscape="http://www.inkscape.org/namespaces/inkscape" xmlns:sodipodi="http://sodipodi.sourceforge.net/DTD/sodipodi-0.dtd" xmlns="http://www.w3.org/2000/svg" xmlns:svg="http://www.w3.org/2000/svg">
  <sodipodi:namedview id="namedview7" pagecolor="#505050" bordercolor="#ffffff" borderopacity="1" inkscape:showpageshadow="0" inkscape:pageopacity="0" inkscape:pagecheckerboard="1" inkscape:deskcolor="#505050" inkscape:document-units="mm" showgrid="false" inkscape:zoom="1.104894" inkscape:cx="133.49697" inkscape:cy="414.97192" inkscape:window-width="2538" inkscape:window-height="1390" inkscape:window-x="1929" inkscape:window-y="37" inkscape:window-maximized="1" inkscape:current-layer="layer4"/>
  <defs id="defs2">
    <inkscape:path-effect effect="bspline" id="path-effect30937" is_visible="true" lpeversion="1" weight="33.333333" steps="2" helper_size="0" apply_no_weight="true" apply_with_weight="true" only_selected="false"/>
    <inkscape:path-effect effect="bspline" id="path-effect30933" is_visible="true" lpeversion="1" weight="33.333333" steps="2" helper_size="0" apply_no_weight="true" apply_with_weight="true" only_selected="false"/>
    <inkscape:path-effect effect="bspline" id="path-effect30929" is_visible="true" lpeversion="1" weight="33.333333" steps="2" helper_size="0" apply_no_weight="true" apply_with_weight="true" only_selected="false"/>
    <inkscape:path-effect effect="bspline" id="path-effect30925" is_visible="true" lpeversion="1" weight="33.333333" steps="2" helper_size="0" apply_no_weight="true" apply_with_weight="true" only_selected="false"/>
    <inkscape:path-effect effect="bspline" id="path-effect30921" is_visible="true" lpeversion="1" weight="33.333333" steps="2" helper_size="0" apply_no_weight="true" apply_with_weight="true" only_selected="false"/>
    <inkscape:path-effect effect="bspline" id="path-effect30917" is_visible="true" lpeversion="1" weight="33.333333" steps="2" helper_size="0" apply_no_weight="true" apply_with_weight="true" only_selected="false"/>
    <inkscape:path-effect effect="bspline" id="path-effect30913" is_visible="true" lpeversion="1" weight="33.333333" steps="2" helper_size="0" apply_no_weight="true" apply_with_weight="true" only_selected="false"/>
    <inkscape:path-effect effect="bspline" id="path-effect30909" is_visible="true" lpeversion="1" weight="33.333333" steps="2" helper_size="0" apply_no_weight="true" apply_with_weight="true" only_selected="false"/>
    <inkscape:path-effect effect="bspline" id="path-effect30905" is_visible="true" lpeversion="1" weight="33.333333" steps="2" helper_size="0" apply_no_weight="true" apply_with_weight="true" only_selected="false"/>
    <inkscape:path-effect effect="bspline" id="path-effect30901" is_visible="true" lpeversion="1" weight="33.333333" steps="2" helper_size="0" apply_no_weight="true" apply_with_weight="true" only_selected="false"/>
  </defs>
  <g inkscape:groupmode="layer" id="layer4" inkscape:label="Layer 2" transform="translate(-23.403163,-17.153659)">
    <path id="path36917" style="fill:#6c6753;fill-opacity:1;stroke:#000000;stroke-width:0.765;stroke-dasharray:none;stroke-opacity:1" d="m 182.46313,129.35141 a 82.750725,82.750725 0 0 0 3.71746,-13.26826 l -10.51703,-7.16831 a 71.219727,71.219727 0 0 0 -0.0618,-17.679321 l 10.48822,-7.22212 a 82.750725,82.750725 0 0 0 -6.11226,-18.6711 l -12.73089,0.382647 A 71.219727,71.219727 0 0 0 156.84019,51.422962 l 4.23768,-12.001179 A 82.750725,82.750725 0 0 0 145.18981,27.906026 l -10.07732,7.794476 a 71.219727,71.219727 0 0 0 -5.05126,-2.129959 71.219727,71.219727 0 0 0 -11.805,-3.267384 l -3.62939,-12.212246 a 82.750725,82.750725 0 0 0 -19.642169,0.06102 L 91.415875,30.372505 A 71.219727,71.219727 0 0 0 74.619058,35.869294 L 64.513498,28.129127 A 82.750725,82.750725 0 0 0 48.641045,39.69274 l 4.300482,11.996899 A 71.219727,71.219727 0 0 0 42.562468,66.020857 L 29.817194,65.698626 a 82.750725,82.750725 0 0 0 -2.273349,5.422472 82.750725,82.750725 0 0 0 -3.717647,13.268746 l 10.517045,7.168311 a 71.219727,71.219727 0 0 0 0.0618,17.679305 l -10.488228,7.22212 a 82.750725,82.750725 0 0 0 6.112267,18.67112 l 12.730875,-0.38265 a 71.219727,71.219727 0 0 0 10.406636,14.30199 l -4.237677,12.00116 a 82.750725,82.750725 0 0 0 15.888077,11.51577 l 10.077327,-7.79449 a 71.219727,71.219727 0 0 0 5.050787,2.12979 71.219727,71.219727 0 0 0 11.817046,3.30725 l 3.628799,12.21092 a 82.750725,82.750725 0 0 0 19.615598,-0.0462 l 3.5711,-12.22964 a 71.219727,71.219727 0 0 0 16.84521,-5.51394 l 10.11288,7.74567 a 82.750725,82.750725 0 0 0 15.84173,-11.5641 L 157.0771,148.8165 a 71.219727,71.219727 0 0 0 10.38145,-14.36399 l 12.73757,0.32211 a 82.750725,82.750725 0 0 0 2.26701,-5.42321 z"/>
    <circle style="fill:#6c6753;fill-opacity:1;stroke:#000000;stroke-width:0.762165;stroke-dasharray:none;stroke-opacity:1" id="path42682" cx="56.882751" cy="-133.55681" r="68.99263" transform="rotate(110.6)"/>
  </g>
  <g inkscape:label="Layer 1" inkscape:groupmode="layer" id="layer1" style="display:inline" transform="translate(-23.403163,-17.153659)">
    <circle style="fill:#fff6d5;fill-opacity:1;stroke:#ffcc00;stroke-width:2.765;stroke-dasharray:none;stroke-opacity:1" id="path113" cx="56.882751" cy="-133.55678" r="67.179192" transform="rotate(110.6)"/>
  </g>
  <g inkscape:groupmode="layer" id="layer3" inkscape:label="Layer 3" transform="translate(-23.403163,-17.153659)">
    <path style="fill:#ffdd55;stroke:#ffcc00;stroke-width:0.765;stroke-linecap:butt;stroke-linejoin:miter;stroke-dasharray:none;stroke-opacity:1" d="m 140.35485,143.64789 c 1.44126,-0.49272 4.32408,-1.47828 6.63942,-3.22235 2.31533,-1.74408 4.06287,-4.24673 5.73463,-6.63051 1.67176,-2.38378 3.26763,-4.64853 4.07597,-7.27233 0.80835,-2.6238 0.82891,-5.60643 0.64761,-7.14032 -0.18131,-1.53389 -0.56419,-1.61881 -8.07338,-3.99907 -7.50918,-2.38026 -22.14416,-7.05567 -29.83928,-9.4486 -7.69512,-2.39292 -8.45002,-2.50331 -8.90303,-2.39537 -0.45301,0.10793 -0.60427,0.43384 -0.52808,0.92981 0.0762,0.49597 0.37974,1.1622 5.21852,7.80259 4.83878,6.64039 14.21245,19.25447 18.89941,25.56167 4.68695,6.3072 4.68696,6.3072 6.12821,5.81448 z" id="path30899" inkscape:path-effect="#path-effect30901" inkscape:original-d="m 138.9136,144.14061 c 2.88252,-0.98541 5.76535,-1.97095 8.6486,-2.9567 1.74726,-2.50255 3.49478,-5.00521 5.24274,-7.50811 1.59555,-2.26467 3.19143,-4.52941 4.78771,-6.79441 0.0206,-2.98249 0.0412,-5.96512 0.0617,-8.94792 -0.38324,-0.0847 -0.76611,-0.16968 -1.14864,-0.25475 -14.63587,-4.67543 -29.27085,-9.35083 -43.90576,-14.0265 -0.75528,-0.11021 -1.51018,-0.22061 -2.26476,-0.33116 -0.15163,0.32611 -0.30288,0.65202 -0.45384,0.97781 0.30323,0.6664 0.60676,1.33263 0.91065,1.99873 9.37372,12.61475 18.74739,25.22883 28.12159,37.84301 z"/>
    <path style="fill:#ffdd55;fill-opacity:1;stroke:#ffcc00;stroke-width:0.765;stroke-linecap:butt;stroke-linejoin:miter;stroke-dasharray:none;stroke-opacity:1" d="m 107.48313,156.34094 c 1.41567,0.48007 4.24725,1.44029 7.13135,1.444 2.88411,0.004 5.82066,-0.94928 8.76649,-1.94759 2.94583,-0.99831 5.90071,-2.04187 8.19012,-3.80085 2.28941,-1.75898 3.91306,-4.23345 4.59389,-5.6471 0.68083,-1.41366 0.41872,-1.76615 -4.24671,-8.0653 -4.66544,-6.29914 -13.73385,-18.54444 -18.55829,-24.90167 -4.82445,-6.35723 -5.40466,-6.82608 -5.86963,-6.98782 -0.46496,-0.16175 -0.81445,-0.0167 -1.08623,0.43705 -0.27177,0.45372 -0.46606,1.21592 -0.51241,9.1786 -0.0464,7.96268 0.0552,23.12533 0.10909,30.96054 0.0539,7.83521 0.0603,8.34271 0.0634,8.59639 0.003,0.25368 0.003,0.25368 1.4189,0.73375 z" id="path30903" inkscape:path-effect="#path-effect30905" inkscape:original-d="m 106.06746,155.86087 c 2.83127,0.96035 5.66284,1.92059 8.49483,2.8807 2.93631,-0.95288 5.87287,-1.90586 8.80994,-2.85908 2.95459,-1.04341 5.90946,-2.08699 8.86477,-3.13073 1.62333,-2.47435 3.247,-4.94881 4.87097,-7.42344 -0.26247,-0.35235 -0.52458,-0.70484 -0.78632,-1.0575 -9.06912,-12.24564 -18.13752,-24.49094 -27.2058,-36.73668 -0.58053,-0.46868 -1.16074,-0.93753 -1.74059,-1.40652 -0.34985,0.14529 -0.69936,0.29033 -1.04855,0.43528 -0.1946,0.76242 -0.38892,1.52461 -0.58289,2.28671 0.10119,15.16333 0.20271,30.32598 0.30458,45.48871 0.006,0.50769 0.0123,1.01519 0.019,1.52255 z"/>
    <path style="fill:#ffdd55;stroke:#ffcc00;stroke-width:0.765;stroke-linecap:butt;stroke-linejoin:miter;stroke-dasharray:none;stroke-opacity:1" d="m 73.775073,147.1186 c 0.871549,1.18942 2.614671,3.56829 5.090002,5.27638 2.475331,1.7081 5.682943,2.74533 8.655165,3.69803 2.972223,0.95269 5.708867,1.82079 8.571917,1.76973 2.863051,-0.0511 5.852483,-1.02153 7.329233,-1.77931 1.47675,-0.75779 1.44046,-1.30289 1.38264,-9.17565 -0.0578,-7.87277 -0.13716,-23.07263 -0.32349,-31.004 -0.18634,-7.93137 -0.47964,-8.59374 -0.82974,-8.97235 -0.35011,-0.37861 -0.75671,-0.47334 -1.31699,-0.32008 -0.56028,0.15325 -1.27416,0.55424 -6.028342,6.89706 -4.754178,6.34281 -13.548449,18.62691 -18.122201,25.0207 -4.573752,6.3938 -4.926819,6.89706 -5.103266,7.14857 -0.176447,0.25151 -0.176478,0.2515 0.695072,1.44092 z" id="path30907" inkscape:path-effect="#path-effect30909" inkscape:original-d="m 72.903523,145.92918 c 1.742811,2.37905 3.485919,4.75793 5.229446,7.13672 3.207355,1.03743 6.414964,2.07467 9.62306,3.11177 2.736359,0.86827 5.473,1.73638 8.210086,2.60435 2.989105,-0.97031 5.978535,-1.94077 8.968315,-2.91138 -0.0369,-0.54496 -0.073,-1.09007 -0.10888,-1.63532 -0.0797,-15.20031 -0.15902,-30.40017 -0.23802,-45.60046 -0.29366,-0.6623 -0.58698,-1.32466 -0.87995,-1.98725 -0.40693,-0.0946 -0.81354,-0.18929 -1.21983,-0.28418 -0.71423,0.40116 -1.42812,0.80213 -2.14166,1.20296 -8.794957,12.28472 -17.589222,24.56882 -26.383312,36.85298 -0.353436,0.50342 -0.706494,1.00669 -1.059224,1.50982 z"/>
    <path style="fill:#ffdd55;stroke:#ffcc00;stroke-width:0.765;stroke-linecap:butt;stroke-linejoin:miter;stroke-dasharray:none;stroke-opacity:1" d="m 52.328829,119.94263 c -0.0086,1.5334 -0.02568,4.60002 0.914969,7.3809 0.940654,2.78088 2.839097,5.27607 4.702638,7.75089 1.863542,2.47481 3.692058,4.92909 6.059476,6.62189 2.367419,1.69281 5.273902,2.62405 6.943288,2.78013 1.669386,0.15609 2.101599,-0.46327 6.674176,-6.88432 4.572576,-6.42105 13.28516,-18.64327 17.713649,-25.11226 4.428488,-6.46898 4.572544,-7.18437 4.515779,-7.69876 -0.05677,-0.5144 -0.314351,-0.82746 -0.840702,-0.99931 -0.526351,-0.17185 -1.32114,-0.20255 -8.87993,2.13715 -7.558789,2.3397 -21.880932,7.04948 -29.307417,9.52625 -7.426486,2.47677 -7.956982,2.72037 -8.222065,2.8421 -0.265082,0.12172 -0.265299,0.12193 -0.273861,1.65534 z" id="path30911" inkscape:path-effect="#path-effect30913" inkscape:original-d="m 52.337391,118.40922 c -0.01746,3.06681 -0.03461,6.13343 -0.05137,9.20001 1.89815,2.49539 3.796583,4.99059 5.695437,7.48572 1.828217,2.45451 3.656743,4.90878 5.485686,7.36302 2.906118,0.93136 5.812598,1.86261 8.719387,2.7937 0.431896,-0.61925 0.864103,-1.23862 1.296669,-1.85814 8.712596,-12.22257 17.425182,-24.44479 26.138289,-36.66742 0.143681,-0.7153 0.287773,-1.43068 0.432191,-2.14628 -0.25799,-0.31284 -0.515482,-0.62598 -0.772755,-0.93918 -0.795175,-0.0307 -1.589971,-0.0612 -2.384443,-0.0921 -14.323081,4.71015 -28.645227,9.41992 -42.967348,14.12964 -0.53086,0.24378 -1.061362,0.48737 -1.591526,0.73082 z"/>
    <path style="fill:#ffdd55;stroke:#ffcc00;stroke-width:0.765;stroke-linecap:butt;stroke-linejoin:miter;stroke-dasharray:none;stroke-opacity:1" d="m 50.979951,116.02365 c -0.89097,-1.21506 -2.672882,-3.64516 -3.58344,-7.87034 -0.910557,-4.22519 -0.949818,-10.245415 -0.08957,-14.57365 0.860246,-4.328235 2.620107,-6.964337 3.798874,-8.191617 1.178766,-1.227279 1.776488,-1.045356 9.325177,1.328896 7.548689,2.374251 22.047766,6.940651 29.557127,9.482098 7.50936,2.541446 8.028509,3.057831 8.285084,3.50073 0.256575,0.442893 0.250475,0.812023 -0.05524,1.249353 -0.305714,0.43734 -0.910732,0.94277 -8.442289,3.59679 -7.531557,2.65403 -21.988977,7.45655 -29.46091,9.93015 -7.471933,2.47359 -7.958078,2.61816 -8.200973,2.6904 -0.242895,0.0722 -0.24287,0.0723 -1.13384,-1.14281 z" id="path30915" inkscape:path-effect="#path-effect30917" inkscape:original-d="m 51.870921,117.23872 c -1.782243,-2.42991 -3.564147,-4.86001 -5.345706,-7.29024 -0.03961,-6.02036 -0.07887,-12.040583 -0.117784,-18.061113 1.759584,-2.636056 3.519451,-5.272154 5.279679,-7.90845 0.597412,0.182035 1.19513,0.363971 1.793183,0.545776 14.499307,4.566749 28.998385,9.133146 43.498104,13.699474 0.5188,0.516598 1.037979,1.032953 1.557482,1.549189 -0.0064,0.369304 -0.01257,0.738424 -0.0183,1.107414 -0.605671,0.50528 -1.210395,1.01106 -1.815111,1.51633 -14.45834,4.80287 -28.915765,9.60538 -43.373132,14.40787 -0.486499,0.1447 -0.972642,0.28928 -1.45844,0.43372 z"/>
    <path style="fill:#ffdd55;stroke:#ffcc00;stroke-width:0.765;stroke-linecap:butt;stroke-linejoin:miter;stroke-dasharray:none;stroke-opacity:1" d="m 70.184519,56.516999 c -1.683752,0.437912 -4.848952,1.687776 -7.272954,3.490194 -2.424003,1.802418 -4.106905,4.157173 -5.821705,6.546057 -1.714799,2.388885 -3.461396,4.811764 -4.316856,7.560533 -0.85546,2.748769 -0.819943,5.823366 -0.253586,7.546795 0.566358,1.723429 1.663777,2.09585 9.195128,4.483899 7.531351,2.388049 21.496063,6.791541 28.818538,8.967163 7.322474,2.175622 8.00247,2.123174 8.505205,1.877924 0.502735,-0.245251 0.82802,-0.68351 0.905125,-1.268019 0.07711,-0.58451 -0.09419,-1.315041 -4.747569,-7.821894 C 90.542462,81.392797 81.40741,69.110247 76.738824,62.781766 72.070237,56.453284 71.86827,56.079087 70.184519,56.516999 Z" id="path30919" inkscape:path-effect="#path-effect30921" inkscape:original-d="m 71.666314,55.70491 c -3.165539,1.250021 -6.330742,2.499878 -9.495596,3.749591 -1.683308,2.355001 -3.366206,4.709759 -5.048803,7.064399 -1.747001,2.423129 -3.493599,4.846007 -5.23989,7.268773 0.03518,3.074883 0.0707,6.14948 0.106551,9.223988 1.097103,0.372632 2.194519,0.745061 3.292308,1.117279 13.964939,4.40382 27.929649,8.807321 41.894992,13.210745 0.679692,-0.05229 1.359687,-0.104748 2.040035,-0.157346 0.324966,-0.438135 0.650256,-0.87639 0.975889,-1.31482 C 100.0202,95.13711 99.848889,94.406584 99.677918,93.67589 90.542184,81.393004 81.407125,69.110459 72.272225,56.827519 72.069908,56.453462 71.86794,56.079265 71.666314,55.70491 Z"/>
    <path style="fill:#ffdd55;stroke:#ffcc00;stroke-width:0.765;stroke-linecap:butt;stroke-linejoin:miter;stroke-dasharray:none;stroke-opacity:1" d="m 102.95064,44.182853 c -1.21689,-0.566218 -3.65038,-1.698527 -6.645779,-1.686425 -2.995399,0.0121 -6.55241,1.168404 -9.781596,2.230509 -3.229186,1.062106 -6.130347,2.029945 -8.412346,3.779675 -2.282,1.74973 -3.944898,4.281164 -4.551533,5.852805 -0.606636,1.571641 -0.157162,2.183785 4.515345,8.508047 4.672507,6.324263 13.567677,18.360143 18.269284,24.575644 4.701605,6.215502 5.209555,6.610414 5.698605,6.767536 0.48906,0.157123 0.95945,0.07628 1.3538,-0.300777 0.39436,-0.377053 0.71245,-1.050482 0.84272,-8.999719 0.13028,-7.949236 0.0726,-23.173539 0.0293,-31.07965 -0.0433,-7.90611 -0.0721,-8.493672 -0.0865,-8.787536 -0.0144,-0.293864 -0.0145,-0.293891 -1.23133,-0.860109 z" id="path30923" inkscape:path-effect="#path-effect30925" inkscape:original-d="m 104.16752,44.749071 c -2.43389,-1.132172 -4.867383,-2.26448 -7.300609,-3.396987 -3.557436,1.156484 -7.114447,2.312787 -10.671256,3.468981 -2.901564,0.968014 -5.802723,1.935858 -8.703665,2.903579 -1.663237,2.531589 -3.326136,5.063022 -4.988692,7.594299 0.449155,0.612333 0.89863,1.224476 1.34846,1.836485 8.895182,12.036519 17.79035,24.072401 26.686052,36.108372 0.5076,0.395083 1.01555,0.789989 1.52385,1.184749 0.47004,-0.08065 0.94042,-0.161564 1.41113,-0.242532 0.31781,-0.673287 0.63586,-1.346738 0.95431,-2.020339 -0.058,-15.224765 -0.11571,-30.449068 -0.17305,-45.673832 -0.0291,-0.587445 -0.0579,-1.175008 -0.0865,-1.762748 z"/>
    <path style="fill:#ffdd55;stroke:#ffcc00;stroke-width:0.765;stroke-linecap:butt;stroke-linejoin:miter;stroke-dasharray:none;stroke-opacity:1" d="m 135.98887,53.620202 c -0.79445,-1.255974 -2.3833,-3.767824 -4.77854,-5.506887 -2.39525,-1.739063 -5.59654,-2.705193 -8.64644,-3.668952 -3.04991,-0.963759 -5.94829,-1.925094 -8.82,-1.865972 -2.87171,0.05912 -5.71653,1.138498 -7.11551,9.55119 -1.39899,8.412691 -1.35248,24.158042 -1.18612,32.369121 0.16635,8.211079 0.45254,8.887701 0.7969,9.28659 0.34435,0.398889 0.74713,0.520137 1.24559,0.355979 0.49846,-0.164159 1.0926,-0.614016 5.74653,-6.905159 4.65393,-6.291143 13.36721,-18.423148 17.96912,-24.789993 4.60191,-6.366844 5.09228,-6.96828 5.33758,-7.269129 0.24529,-0.300849 0.24534,-0.300814 -0.54911,-1.556788 z" id="path30927" inkscape:path-effect="#path-effect30929" inkscape:original-d="m 136.78332,54.876176 c -1.58923,-2.511742 -3.17808,-5.023587 -4.76662,-7.535695 -3.20169,-0.965985 -6.40298,-1.932117 -9.60402,-2.898436 -2.89878,-0.961198 -5.79716,-1.92253 -8.6953,-2.884058 -2.8452,1.079538 -5.69001,2.158925 -8.5345,3.238153 0.0462,15.746133 0.0927,31.491484 0.13953,47.236993 0.28586,0.676793 0.57206,1.353411 0.85858,2.029878 0.40245,0.121404 0.80523,0.242653 1.20836,0.36375 0.59381,-0.449719 1.18795,-0.899574 1.78243,-1.349583 8.71327,-12.132324 17.42657,-24.264318 26.14035,-36.396708 0.49005,-0.6013 0.98043,-1.20273 1.47114,-1.804329 z"/>
    <path style="fill:#ffdd55;stroke:#ffcc00;stroke-width:0.765;stroke-linecap:butt;stroke-linejoin:miter;stroke-dasharray:none;stroke-opacity:1" d="m 157.28296,81.064101 c 0.51845,-1.49402 0.84964,-4.24781 -0.13384,-7.130908 -0.98347,-2.883099 -3.28155,-5.895081 -5.30211,-8.632612 -2.02057,-2.73753 -3.76351,-5.200431 -6.09708,-6.794175 -2.33356,-1.593744 -5.25743,-2.318216 -11.30739,3.702839 -6.04995,6.021054 -15.2257,18.786784 -19.93033,25.53467 -4.70462,6.747885 -4.93802,7.477658 -4.88455,8.027439 0.0535,0.54978 0.39382,0.91988 0.96387,1.132533 0.57004,0.212653 1.37,0.267792 8.86883,-2.071332 7.49883,-2.339124 21.69601,-7.07247 29.14741,-9.556322 7.45141,-2.483852 8.15675,-2.718112 8.67519,-4.212132 z" id="path30931" inkscape:path-effect="#path-effect30933" inkscape:original-d="m 157.47024,82.323735 c 0.3309,-2.753687 0.66204,-5.507482 0.99358,-8.261529 -2.29846,-3.011893 -4.59653,-6.023878 -6.89437,-9.036142 -1.74332,-2.462796 -3.48625,-4.925701 -5.22891,-7.388854 -2.92423,-0.724321 -5.84809,-1.4488 -8.77164,-2.173427 -9.17647,12.766404 -18.35221,25.532141 -27.52782,38.297984 -0.23376,0.729946 -0.46714,1.459726 -0.70022,2.189346 0.34001,0.370265 0.68036,0.740361 1.02105,1.110309 0.79965,0.05529 1.59961,0.110417 2.39991,0.165419 14.19738,-4.733379 28.39456,-9.466712 42.59234,-14.200308 0.70503,-0.234108 1.41037,-0.468373 2.11608,-0.702798 z"/>
    <path style="fill:#ffdd55;fill-opacity:1;stroke:#ffcc00;stroke-width:0.765;stroke-linecap:butt;stroke-linejoin:miter;stroke-dasharray:none;stroke-opacity:1" d="m 158.81608,115.37422 c 0.93538,-1.06158 2.80632,-3.18494 3.73057,-5.98403 0.92426,-2.7991 0.90152,-6.2737 0.88339,-9.875119 -0.0181,-3.601416 -0.0317,-7.329473 -0.97922,-10.02005 -0.94756,-2.690577 -2.82903,-4.343305 -11.2574,-2.732265 -8.42836,1.61104 -23.40281,6.485436 -31.18323,9.159233 -7.78043,2.673797 -8.36659,3.146781 -8.64293,3.616445 -0.27634,0.469666 -0.24314,0.936036 0.0805,1.430946 0.32365,0.49491 0.93785,1.0185 8.40749,3.55327 7.46963,2.53476 21.79428,7.08051 29.27443,9.40122 7.48016,2.32072 8.11556,2.41628 8.43343,2.46409 0.31787,0.0478 0.31759,0.0478 1.25297,-1.01374 z" id="path30935" inkscape:path-effect="#path-effect30937" inkscape:original-d="m 157.8807,116.43579 c 1.87064,-2.12325 3.74159,-4.2466 5.61294,-6.37021 -0.023,-3.47449 -0.0458,-6.94909 -0.0682,-10.423953 -0.0139,-3.727971 -0.0275,-7.456027 -0.0406,-11.184366 -1.8818,-1.652562 -3.76327,-3.305293 -5.6444,-4.958165 -14.97537,4.874743 -29.94982,9.749133 -44.92422,14.623472 -0.58672,0.472891 -1.17266,0.946156 -1.75851,1.41896 0.0329,0.466592 0.0657,0.932992 0.0996,1.399262 0.61389,0.52375 1.22809,1.04734 1.84264,1.57079 14.32486,4.54606 28.6495,9.09182 42.97475,13.63749 0.63511,0.0957 1.27051,0.1913 1.90628,0.28669 z"/>
  </g>
</svg>