<?xml version="1.0" encoding="UTF-8" standalone="no"?>
<!-- Created with Inkscape (http://www.inkscape.org/) -->

<svg
   width="420mm"
   height="297mm"
   viewBox="0 0 420 297"
   version="1.1"
   id="svg5"
   sodipodi:docname="rysunek.svg"
   inkscape:version="1.2.1 (9c6d41e410, 2022-07-14)"
   inkscape:export-filename="rysunek.svg"
   inkscape:export-xdpi="96"
   inkscape:export-ydpi="96"
   xmlns:inkscape="http://www.inkscape.org/namespaces/inkscape"
   xmlns:sodipodi="http://sodipodi.sourceforge.net/DTD/sodipodi-0.dtd"
   xmlns="http://www.w3.org/2000/svg"
   xmlns:svg="http://www.w3.org/2000/svg">
  <sodipodi:namedview
     id="namedview7"
     pagecolor="#ffffff"
     bordercolor="#000000"
     borderopacity="0.25"
     inkscape:showpageshadow="2"
     inkscape:pageopacity="0.0"
     inkscape:pagecheckerboard="0"
     inkscape:deskcolor="#d1d1d1"
     inkscape:document-units="mm"
     showgrid="false"
     inkscape:zoom="0.72515432"
     inkscape:cx="1044.6052"
     inkscape:cy="492.99851"
     inkscape:window-width="2560"
     inkscape:window-height="1361"
     inkscape:window-x="1911"
     inkscape:window-y="-9"
     inkscape:window-maximized="1"
     inkscape:current-layer="layer1" />
  <defs
     id="defs2">
    <inkscape:path-effect
       effect="skeletal"
       id="path-effect1050"
       is_visible="true"
       lpeversion="1"
       pattern="m 13.339265,69.917572 h 31.371121 c 4.102536,0 6.123216,3.302824 6.100986,7.4053 l -0.358165,50.677058 -0.955106,50.28252 c -0.334752,4.32965 -11.597262,5.94572 -15.520476,5.96942 H 22.755127 c -4.102538,0 -15.4428018,-1.86762 -15.5204766,-5.96942 L 6.2795441,127.84592 5.9213793,77.322872 c -0.029083,-4.102433 3.3153498,-7.4053 7.4178857,-7.4053 z"
       copytype="repeated_stretched"
       prop_scale="1"
       scale_y_rel="false"
       spacing="2"
       normal_offset="0"
       tang_offset="0"
       prop_units="false"
       vertical_pattern="false"
       hide_knot="false"
       fuse_tolerance="0" />
    <clipPath
       clipPathUnits="userSpaceOnUse"
       id="clipPath3647">
      <path
         id="path3649"
         style="fill:none;fill-opacity:1;stroke:#ffcc0f;stroke-width:0.499999;stroke-linecap:round;stroke-linejoin:round;stroke-dasharray:none;stroke-opacity:1"
         d="m 316.36245,146.47583 c -0.30787,2.78185 -0.74337,5.55784 -1.30672,8.3216 v 0 c -1.21378,5.92798 -3.00858,11.70992 -5.36544,17.28436 v 0 c -2.1749,5.1378 -4.8029,10.04865 -7.85823,14.68966 -0.20894,0.31738 -0.4219,0.61665 -0.6378,0.898 0,0 0,0 0,0 -3.03446,3.95359 -6.38829,4.23775 -8.52149,2.50245 -9.57114,-7.83217 -19.18375,-15.61301 -28.83741,-23.34216 -9.48709,-7.78485 -19.08367,-15.43359 -28.78693,-22.94376 -0.90125,-0.71955 -1.48782,-1.53739 -1.84947,-2.15323 -0.62719,-1.06556 -0.76088,-1.86007 -0.6607,-2.10946 0.0219,-0.0491 0.0432,-0.0982 0.0636,-0.14708 0.14658,-0.34491 0.27158,-0.71579 0.36704,-1.08678 0.0247,-0.0958 0.1123,-0.21116 0.25858,-0.33649 0.39275,-0.3302 2.17332,-1.48264 4.35877,-1.45126 12.30681,0.17675 24.61647,0.17981 36.92526,0.009 12.3291,-0.0231 24.65826,-0.11145 36.98695,-0.26495 2.99016,-0.0372 5.49878,4.39365 4.86396,10.1298 z m -27.88917,56.29423 c -3.71616,3.54359 -7.72187,6.7697 -11.98743,9.65267 v 0 c -4.90939,3.31724 -10.12862,6.15071 -15.60567,8.46921 -3.06765,1.29699 -6.19811,2.42377 -9.38114,3.37716 -4.46673,1.33791 -7.47327,0.22097 -8.67312,-1.77386 -0.27339,-0.45448 -0.46049,-0.95829 -0.56407,-1.49894 -1.24039,-6.57889 -2.50007,-13.15404 -3.77906,-19.72537 -1.08367,-5.56776 -2.18119,-11.13276 -3.29251,-16.69494 -2.25964,-12.06247 -4.69332,-24.09058 -7.29997,-36.08064 -0.45604,-2.25429 0.19818,-4.04138 0.45952,-4.51359 0.10209,-0.18164 0.20653,-0.29859 0.29821,-0.34759 0.33499,-0.16334 0.66897,-0.35654 0.98185,-0.56754 0.0605,-0.0407 0.12087,-0.0826 0.18102,-0.12559 0.22814,-0.1632 1.01408,-0.16908 2.0899,0.16145 0.72089,0.22152 1.72177,0.63507 2.62737,1.41861 9.30754,8.05307 18.72994,15.97405 28.26433,23.76052 9.45519,7.91235 18.95278,15.77445 28.49231,23.58591 2.0079,1.64418 1.57967,5.60809 -1.33374,9.28522 0,0 0,0 0,0 -0.44072,0.55624 -0.93432,1.09905 -1.4778,1.61731 z m -57.55214,25.1714 c -1.92518,0.12083 -3.85155,0.18076 -5.77701,0.17986 -6.16426,0.003 -12.33787,-0.6177 -18.4516,-1.86391 v 0 c -5.92799,-1.21378 -11.70996,-3.00857 -17.28445,-5.36547 -0.19883,-0.0842 -0.39732,-0.169 -0.59545,-0.25452 -5.29453,-2.28519 -6.38709,-5.88151 -4.96109,-8.43917 6.05391,-10.78426 12.04971,-21.60066 17.98711,-32.44873 6.02112,-10.69369 11.88823,-21.47213 17.59935,-32.33209 0.64596,-1.18543 1.50268,-1.98855 2.08335,-2.44958 0.7775,-0.61918 1.38251,-0.83656 1.62711,-0.78507 0.10825,0.0271 0.21643,0.0517 0.32388,0.0735 0.30992,0.0664 0.64949,0.11247 1.00245,0.13868 0.15681,0.0117 0.39066,0.14973 0.66934,0.40743 0.54436,0.49837 1.65999,1.89201 1.97096,3.83988 1.94029,12.1535 4.05464,24.2796 6.34315,36.37451 2.1469,12.14032 4.35928,24.26932 6.63717,36.38647 0.55264,2.93974 -3.4266,6.17747 -9.17427,6.53821 z m -60.22749,-17.71448 c -3.70282,-2.73146 -7.19146,-5.73297 -10.44462,-8.98609 v 0 c -4.14935,-4.1494 -7.88937,-8.68193 -11.18181,-13.55335 v -1e-5 c -2.18245,-3.22992 -4.1555,-6.59398 -5.91029,-10.07737 -1.19939,-2.38087 -1.52611,-4.4749 -1.25092,-6.08159 0.31084,-1.81425 1.37836,-3.0172 2.85899,-3.58309 11.5651,-4.38148 23.10608,-8.82541 34.62246,-13.33162 11.48145,-4.3341 22.89875,-8.83341 34.24824,-13.49683 0.27693,-0.10915 0.5457,-0.19647 0.80175,-0.26668 0,0 0,0 0,0 1.96154,-0.53649 3.46926,-0.18933 3.90985,0.0325 0.1087,0.0551 0.18684,0.11414 0.23203,0.17193 0.25458,0.35096 0.54668,0.69292 0.8548,1.001 0.0185,0.0185 0.0371,0.037 0.0559,0.0553 0.22049,0.21629 0.38106,1.15494 0.13974,2.47809 -0.12537,0.68224 -0.37393,1.56431 -0.89403,2.43331 -6.32078,10.56082 -12.49064,21.21244 -18.50765,31.95164 -6.15473,10.683 -12.25224,21.39922 -18.29225,32.14822 -1.11811,1.98983 -4.31728,2.43502 -7.91659,0.97924 0,0 0,0 0,0 -1.11318,-0.4503 -2.2435,-1.07644 -3.32561,-1.87469 z m -34.75806,-52.27914 c -0.25268,-1.04529 -0.48707,-2.09555 -0.70307,-3.15044 v -1e-5 c -1.2462,-6.11372 -1.86677,-12.28733 -1.86391,-18.45159 -0.003,-6.16426 0.61771,-12.33789 1.86392,-18.45164 v 0 c 0.18089,-0.88345 0.37469,-1.76366 0.58133,-2.64043 1.32304,-5.61364 4.67736,-7.32497 7.44432,-6.36775 11.67578,4.07742 23.37318,8.09166 35.0917,12.04254 11.58113,4.0603 23.21912,7.95332 34.91033,11.67793 1.48228,0.49618 2.52627,1.35769 3.05656,1.87997 0.54364,0.53581 0.78256,0.9997 0.77436,1.24395 -0.0138,0.20206 -0.0212,0.40821 -0.0222,0.61543 8e-4,0.28105 0.0144,0.56011 0.0394,0.8297 0.0188,0.2032 -0.15354,0.55545 -0.51299,0.97271 -0.48241,0.55887 -1.62158,1.67144 -3.23842,2.23244 -11.62772,4.03446 -23.19773,8.23649 -34.70638,12.60493 -11.57812,4.23693 -23.13357,8.53651 -34.66584,12.89857 -2.79697,1.05795 -6.68446,-2.29101 -8.04913,-7.93631 z m 6.98732,-62.39853 c 1.81282,-3.650229 3.8643,-7.170928 6.1443,-10.545239 v 0 c 3.29244,-4.871413 7.03246,-9.403945 11.18182,-13.553366 l 1e-5,-2e-6 c 3.13022,-3.130185 6.47846,-6.027412 10.02575,-8.675278 1.36364,-1.017886 2.67689,-1.665216 3.86991,-1.999829 2.77541,-0.778417 4.83203,0.129016 5.90466,1.917131 6.33097,10.624042 12.71875,21.213755 19.16304,31.768674 6.26872,10.550549 12.68756,21.009929 19.25456,31.374909 0.36419,0.59414 0.6052,1.17495 0.76733,1.68065 0,0 0,0 0,0 0.5018,1.56966 0.36028,2.73945 0.18113,3.10014 -0.0229,0.0461 -0.0475,0.0836 -0.0734,0.11228 -0.323,0.33352 -0.62558,0.70232 -0.88213,1.07674 -0.0114,0.0168 -0.0257,0.0336 -0.0423,0.0501 -0.2518,0.24915 -1.34109,0.57691 -2.88023,0.45024 -0.58577,-0.0493 -1.28711,-0.16833 -2.0164,-0.44631 -11.50052,-4.38382 -23.06473,-8.60174 -34.68893,-12.65266 -11.59291,-4.1963 -23.20874,-8.33001 -34.84696,-12.40096 -1.80468,-0.63127 -2.79387,-2.87993 -2.58942,-5.85932 0.11589,-1.683439 0.61353,-3.558019 1.52727,-5.397879 z m 45.40884,-43.285955 c 0.35767,-0.156792 0.71646,-0.311367 1.07637,-0.463722 5.57446,-2.356863 11.35641,-4.151651 17.28438,-5.365438 6.11375,-1.246209 12.28738,-1.866786 18.45162,-1.863918 1.75251,-7.94e-4 3.50575,0.04876 5.25818,0.148778 5.71153,0.325974 7.98181,3.324794 7.52281,6.217989 -1.97337,12.208449 -3.88107,24.427105 -5.72313,36.655438 -1.97381,12.112189 -3.77408,24.251018 -5.4009,36.412728 -0.27109,1.8188 -1.14113,3.09417 -1.65694,3.66015 -0.37381,0.41352 -0.69346,0.62424 -0.88269,0.64973 -0.27638,0.0273 -0.54214,0.0673 -0.78908,0.12023 -0.17094,0.0347 -0.34372,0.0764 -0.51575,0.12419 -0.21344,0.0593 -0.686,-0.1054 -1.29957,-0.51481 -0.6401,-0.42583 -1.7528,-1.28938 -2.4971,-2.62126 -6.00407,-10.74393 -12.16226,-21.40226 -18.47258,-31.971749 -6.19297,-10.660859 -12.44328,-21.28869 -18.75067,-31.883033 -1.52969,-2.56939 1.07588,-6.973506 6.39505,-9.305303 z m 62.66508,-3.989721 c 3.35608,0.984311 6.65449,2.160871 9.8833,3.525996 5.47713,2.318547 10.69638,5.152033 15.60575,8.46926 v 2e-6 c 4.1212,2.785396 7.99986,5.891123 11.6092,9.294043 0.72136,0.680119 1.31617,1.365978 1.79205,2.039858 2.24954,3.185494 1.81758,5.95865 -0.0318,7.562297 -9.36734,8.074872 -18.69131,16.199422 -27.97149,24.37332 -9.30628,8.0002 -18.49753,16.13165 -27.5709,24.39192 -0.70898,0.62609 -1.44137,1.02716 -2.03723,1.28392 -1.37987,0.59458 -2.38162,0.5759 -2.63438,0.4184 -0.004,-0.003 -0.008,-0.005 -0.0114,-0.008 -0.3693,-0.24905 -0.76797,-0.47328 -1.16295,-0.65287 -0.0538,-0.0245 -0.11061,-0.0722 -0.16802,-0.14164 -0.2702,-0.33134 -0.8833,-1.74678 -0.82836,-3.59419 0.0105,-0.34415 0.0452,-0.71475 0.11927,-1.10315 2.30526,-12.09002 4.43557,-24.213552 6.39106,-36.366812 2.1041,-12.147872 4.14261,-24.307302 6.11556,-36.477765 0.22373,-1.380199 1.36638,-2.478474 3.14033,-3.099856 2.03407,-0.71153 4.84214,-0.770842 7.76009,0.08496 z m 50.54657,37.210788 c 3.17879,4.769078 5.90384,9.826549 8.14689,15.125348 2.35686,5.57448 4.15166,11.35644 5.36544,17.28439 v 0 c 0.5284,2.59221 0.94432,5.19519 1.24793,7.80366 0.66249,5.69196 -1.90296,8.41999 -4.8319,8.46551 -12.36649,0.15633 -24.73177,0.37807 -37.09532,0.66527 -12.27177,0.13743 -24.53999,0.44807 -36.8009,0.93204 -2.06941,0.0497 -3.66455,-0.81635 -4.17864,-1.15665 -0.2776,-0.18693 -0.43718,-0.36237 -0.47995,-0.49361 -0.0872,-0.30634 -0.19375,-0.60954 -0.31506,-0.89495 -0.0456,-0.10894 -0.0949,-0.21858 -0.14747,-0.3282 -0.10725,-0.22372 -0.002,-0.84871 0.3923,-1.69039 0.32941,-0.70616 0.94634,-1.78272 2.00277,-2.64397 9.53938,-7.77696 18.96842,-15.68996 28.28431,-23.73656 9.42622,-7.946838 18.81025,-15.944118 28.15165,-23.991475 2.18864,-1.88544 6.71383,-0.282874 9.92855,4.183975 0,0 0,0 0,0 0.11189,0.155522 0.22174,0.314092 0.3294,0.475612 z"
         sodipodi:nodetypes="sssssssssssssssssssssssssssssssss" />
    </clipPath>
  </defs>
  <g
     inkscape:label="Warstwa 1"
     inkscape:groupmode="layer"
     id="layer1">
    <path
       id="path1114"
       style="fill:#6c6753;fill-opacity:1;stroke:#000000;stroke-width:1;stroke-linecap:round;stroke-linejoin:round;stroke-dasharray:none;stroke-opacity:1"
       d="m 291.74141,30.781281 -20.27107,12.218005 a 104.59677,104.59677 0 0 0 -24.06858,-8.517158 l -6.66922,-22.040423 a 125.14865,125.14865 0 0 0 -31.85049,0.110099 L 201.272,34.753424 A 104.59677,104.59677 0 0 0 179.23259,42.5556 L 159.69029,29.784315 A 125.14865,125.14865 0 0 0 134.56776,50.11258 l 8.34097,21.638871 a 104.59677,104.59677 0 0 0 -9.77981,14.679251 104.59677,104.59677 0 0 0 -2.69534,5.404725 l -23.38782,2.8032 a 125.14865,125.14865 0 0 0 -6.70126,30.915753 l 20.03966,11.07204 a 104.59677,104.59677 0 0 0 3.25145,26.01933 l -16.08107,17.14613 a 125.14865,125.14865 0 0 0 13.7151,26.78243 l 22.27216,-4.36142 a 104.59677,104.59677 0 0 0 21.8853,20.31587 l -1.29453,23.41529 a 125.14865,125.14865 0 0 0 0.7783,0.46486 125.14865,125.14865 0 0 0 25.37151,10.41451 l 14.26304,-17.66303 a 104.59677,104.59677 0 0 0 32.94209,1.20174 l 13.83158,18.46578 a 125.14865,125.14865 0 0 0 25.89143,-8.63887 l -0.43058,-22.84934 a 104.59677,104.59677 0 0 0 26.41945,-21.38622 l 22.1791,5.1876 a 125.14865,125.14865 0 0 0 9.36358,-14.54921 125.14865,125.14865 0 0 0 4.48471,-9.0714 l -15.21992,-17.46026 a 104.59677,104.59677 0 0 0 5.49522,-32.0563 l 20.24746,-10.24347 A 125.14865,125.14865 0 0 0 344.48069,99.621313 L 321.3097,95.984039 A 104.59677,104.59677 0 0 0 306.33151,70.925781 l 8.95092,-20.918976 a 125.14865,125.14865 0 0 0 -23.54104,-19.22553 z" />
    <circle
       style="fill:#fff6d5;fill-opacity:1;stroke:#ffcc00;stroke-width:4.37914;stroke-linecap:round;stroke-linejoin:round;stroke-dasharray:none;stroke-opacity:1"
       id="circle6700"
       cx="263.66531"
       cy="12.143768"
       r="99.05114"
       transform="rotate(28.65203)" />
    <path
       id="path897"
       style="fill:#ffdd55;fill-opacity:1;stroke:#ffcc0f;stroke-width:0.47019;stroke-linecap:round;stroke-linejoin:round;stroke-dasharray:none;stroke-opacity:1"
       d="m 296.45347,186.6746 c -1.50839,2.15698 -3.11945,4.2514 -4.83064,6.27809 v 0 c -3.67452,4.34465 -7.76273,8.30681 -12.22115,11.84429 v 0 c -4.11145,3.25916 -8.4944,6.1268 -13.10843,8.57908 -0.31551,0.1676 -0.6262,0.31855 -0.93123,0.45339 0,0 0,0 0,0 -4.28687,1.89428 -7.18259,0.61664 -8.16042,-1.77775 -4.36687,-10.779 -8.79106,-21.53425 -13.27243,-32.26545 -4.31876,-10.70207 -8.78931,-21.34115 -13.41034,-31.91396 -0.41931,-1.00009 -0.53464,-1.93949 -0.55535,-2.6108 -0.0373,-1.16207 0.21085,-1.87805 0.40593,-2.03869 0.0428,-0.0286 0.0804,-0.061 0.11947,-0.0932 0.27647,-0.21854 0.54688,-0.46831 0.79286,-0.7313 0.0633,-0.0678 0.18794,-0.12367 0.36516,-0.16107 0.47301,-0.0954 2.46206,-0.24353 4.25135,0.76794 10.07613,5.69517 20.23305,11.24803 30.46784,16.65674 10.1848,5.54007 20.39888,11.02674 30.64212,16.4589 2.48406,1.31808 2.5567,6.10513 -0.55405,10.55252 z m -48.39802,33.88036 c -4.66452,1.24867 -9.42483,2.10485 -14.24482,2.56059 v 0 c -5.54707,0.52379 -11.13177,0.50864 -16.69696,-0.0478 -3.11642,-0.31255 -6.2078,-0.7947 -9.26442,-1.44304 -4.28926,-0.91036 -6.26697,-3.18695 -6.35739,-5.37461 -0.022,-0.49842 0.0521,-0.9984 0.20969,-1.49136 1.94254,-5.98852 3.86801,-11.98233 5.77521,-17.98206 1.6164,-5.08322 3.21948,-10.17064 4.81063,-15.26173 3.57444,-10.97302 6.98932,-21.99639 10.24464,-33.06633 0.63967,-2.06608 1.98585,-3.24569 2.41445,-3.51748 0.16615,-0.10388 0.30509,-0.1534 0.40284,-0.15239 0.35008,0.0184 0.71278,0.003 1.06616,-0.0258 0.0679,-0.01 0.13724,-0.013 0.20587,-0.0231 0.26201,-0.0334 0.91283,0.31833 1.65189,1.0756 0.49495,0.50785 1.13446,1.30044 1.52854,2.35535 4.04961,10.84243 8.2537,21.62759 12.61083,32.35232 4.23498,10.79284 8.52759,21.56332 12.87768,32.31098 0.91563,2.26219 -1.22488,5.34022 -5.28738,7.061 0,0 0,0 0,0 -0.61447,0.26031 -1.26654,0.48563 -1.94875,0.66831 z m -58.84354,-5.17813 c -1.64312,-0.7686 -3.26015,-1.58689 -4.84829,-2.4566 -5.08836,-2.77692 -9.90303,-6.07291 -14.38636,-9.85812 v 0 c -4.34459,-3.67443 -8.30679,-7.76266 -11.84432,-12.22115 -0.1259,-0.15954 -0.25168,-0.31873 -0.37658,-0.47867 -3.33883,-4.27303 -2.61884,-7.73352 -0.28884,-9.20124 9.85849,-6.16965 19.68352,-12.39219 29.47467,-18.66708 9.79053,-6.10984 19.49233,-12.35904 29.10208,-18.74576 1.06759,-0.68701 2.13673,-0.96348 2.82371,-1.08211 0.92084,-0.16036 1.5181,-0.0673 1.69668,0.087 0.0774,0.0726 0.15549,0.14005 0.23442,0.20618 0.22556,0.19503 0.48516,0.38575 0.76474,0.5665 0.12395,0.0822 0.25487,0.29968 0.36866,0.638 0.22443,0.65675 0.5167,2.30986 -0.1048,4.05752 -3.87869,10.90426 -7.60167,21.86435 -11.16664,32.8774 -3.70257,10.98657 -7.34565,21.99336 -10.92963,33.01981 -0.86919,2.67534 -5.61313,3.55278 -10.51895,1.25888 z m -41.71393,-41.77521 c -1.82399,-3.9237 -3.34952,-7.97357 -4.56719,-12.12506 v 0 c -1.55323,-5.29519 -2.59596,-10.72195 -3.11638,-16.22647 l 0,-1e-5 c -0.3447,-3.64942 -0.45605,-7.31518 -0.33345,-10.98103 0.083,-2.50564 0.75814,-4.38096 1.71014,-5.58266 1.07454,-1.35704 2.49785,-1.86843 3.97496,-1.66782 11.51938,1.59936 23.04715,3.13567 34.58271,4.60977 11.42889,1.60086 22.87964,3.03542 34.34827,4.30449 0.27724,0.0388 0.53931,0.0814 0.78171,0.14209 0,0 0,0 0,0 1.86069,0.44152 2.94822,1.40833 3.21177,1.78999 0.0639,0.0946 0.10269,0.17848 0.11398,0.24656 0.0532,0.40447 0.13867,0.81825 0.254,1.21139 0.0104,0.0225 0.0113,0.0463 0.0229,0.073 0.0837,0.27792 -0.206,1.12497 -1.00161,2.10822 -0.41108,0.50646 -1.01391,1.12234 -1.83492,1.60495 -9.97802,5.86498 -19.87239,11.87303 -29.68019,18.02222 -9.89594,6.04078 -19.75977,12.13462 -29.59091,18.28154 -1.81989,1.13794 -4.66059,0.0629 -6.97454,-2.76137 0,0 0,0 0,0 -0.71557,-0.8735 -1.36607,-1.89984 -1.89908,-3.04656 z m -5.11055,-58.81465 c 0.26292,-0.97651 0.54274,-1.94902 0.8407,-2.91675 l 0,-1e-5 c 1.72808,-5.60721 4.00029,-10.9815 6.78167,-16.067248 2.7767,-5.088377 6.07281,-9.903065 9.85803,-14.386364 v 0 c 0.5476,-0.647502 1.10441,-1.286464 1.6703,-1.916808 3.62301,-4.036006 7.16278,-3.935734 9.01448,-1.89821 7.79671,8.629411 15.63965,17.216538 23.52861,25.76076 7.72633,8.57257 15.57499,17.0329 23.54339,25.37812 0.9996,1.07776 1.47256,2.25943 1.67461,2.92957 0.20712,0.68727 0.19513,1.17777 0.0784,1.37565 -0.10403,0.15988 -0.20252,0.3269 -0.29663,0.4975 -0.12705,0.23156 -0.2405,0.469 -0.34279,0.70188 -0.0734,0.17816 -0.3771,0.38918 -0.86187,0.5715 -0.65021,0.24359 -2.0918,0.64805 -3.67899,0.38194 -11.41468,-1.91345 -22.8573,-3.66278 -34.32435,-5.24719 -11.46503,-1.72399 -22.93954,-3.38627 -34.42318,-4.98654 -2.78527,-0.38767 -4.48317,-4.90464 -3.06383,-10.1787 z m 33.90183,-48.342421 c 3.14181,-2.194884 6.42222,-4.175256 9.82531,-5.931736 v 0 c 4.91349,-2.535492 10.04358,-4.589474 15.33869,-6.142747 l 1e-5,3e-6 c 3.99461,-1.171681 8.06397,-2.052827 12.18519,-2.638463 1.58431,-0.22512 2.95997,-0.167148 4.09535,0.0947 2.64135,0.60907 3.92928,2.285235 4.00821,4.244496 0.43416,11.621904 0.93059,23.241094 1.48934,34.857034 0.41587,11.53316 0.99678,23.05884 1.74247,34.57343 0.0326,0.65446 -0.0324,1.24238 -0.12571,1.7328 0,0 0,0 0,0 -0.29374,1.52159 -0.93847,2.42286 -1.24805,2.64002 -0.0414,0.0255 -0.0768,0.0483 -0.1116,0.0605 -0.41685,0.1296 -0.83289,0.29748 -1.21346,0.49084 -0.0156,0.0112 -0.0356,0.0142 -0.0585,0.0229 -0.32007,0.0915 -1.36676,-0.12856 -2.57974,-0.92754 -0.46142,-0.30412 -0.98618,-0.71923 -1.46272,-1.27743 -7.51395,-8.80325 -15.15516,-17.49838 -22.92123,-26.08264 -7.67465,-8.690225 -15.39648,-17.339047 -23.16503,-25.946166 -1.20468,-1.334743 -1.00694,-3.636395 0.5049,-6.002869 0.85464,-1.336995 2.11066,-2.659542 3.69427,-3.765857 z m 56.99025,-15.245891 c 0.36585,0.0321 0.73165,0.06602 1.09745,0.102823 5.66284,0.568599 11.24358,1.694533 16.68277,3.365834 5.60715,1.728266 10.98162,3.999856 16.06723,6.781698 1.44656,0.789514 2.87101,1.620948 4.27215,2.493715 4.56629,2.844324 5.08767,6.342721 3.4043,8.523287 -7.13332,9.184962 -14.21701,18.407937 -21.25093,27.668515 -7.09024,9.10533 -14.04931,18.31081 -20.87554,27.61352 -1.04375,1.37876 -2.33683,2.03892 -3.01769,2.27332 -0.49495,0.17276 -0.85378,0.20246 -1.02137,0.1382 -0.23905,-0.10476 -0.47792,-0.18843 -0.70539,-0.25661 -0.15781,-0.0441 -0.31742,-0.0948 -0.48208,-0.12859 -0.20496,-0.0371 -0.51852,-0.39623 -0.84028,-1.0108 -0.33613,-0.63999 -0.86502,-1.85444 -0.8787,-3.28905 -0.11023,-11.57357 -0.38625,-23.14592 -0.82793,-34.713438 -0.30361,-11.590016 -0.66945,-23.178679 -1.09744,-34.765431 -0.10386,-2.810082 4.03217,-5.269628 9.47304,-4.79549 z m 53.51199,24.963383 c 2.32563,2.325519 4.51712,4.783717 6.56612,7.366141 3.47442,4.382954 6.50392,9.074627 9.05947,14.025712 l 0,2e-6 c 2.14493,4.156824 3.9454,8.468704 5.38951,12.904334 0.28867,0.88649 0.4702,1.72067 0.55908,2.49136 0.42006,3.64306 -1.18641,5.73689 -3.4362,6.22624 -11.37123,2.43982 -22.72892,4.94018 -34.0729,7.50111 -11.2871,2.40579 -22.53847,4.97176 -33.75059,7.69717 -0.86734,0.19697 -1.65249,0.19774 -2.26012,0.14097 -1.40677,-0.13138 -2.22509,-0.59856 -2.3623,-0.84363 -0.004,-0.003 -0.008,-0.005 -0.01,-0.008 -0.1924,-0.37211 -0.42029,-0.73686 -0.66532,-1.06314 -0.0315,-0.0463 -0.0589,-0.10997 -0.0741,-0.19267 -0.0739,-0.39521 0.0594,-1.83973 0.93674,-3.33966 0.16452,-0.27878 0.36002,-0.56922 0.59585,-0.8565 7.35378,-8.93754 14.57828,-17.98166 21.67196,-27.12916 7.21381,-9.076074 14.37883,-18.191183 21.49465,-27.344972 0.80688,-1.038116 2.24505,-1.429228 3.98918,-1.142125 1.99936,0.330007 4.34339,1.547203 6.36554,3.569148 z m 24.93406,53.498969 c 0.47281,5.36884 0.44117,10.77112 -0.0972,16.15527 -0.56885,5.66284 -1.69468,11.24357 -3.36581,16.68281 v 0 c -0.7323,2.37756 -1.56283,4.71317 -2.48887,7.00254 -2.0192,4.99611 -5.36693,6.09024 -7.80453,4.80731 -10.27555,-5.44734 -20.57985,-10.83977 -30.91205,-16.17744 -10.18901,-5.41994 -20.45293,-10.69563 -30.78945,-15.82443 -1.73034,-0.89164 -2.65598,-2.326 -2.92675,-2.83866 -0.14476,-0.27947 -0.19734,-0.49619 -0.17346,-0.6237 0.0668,-0.29205 0.11205,-0.59089 0.14355,-0.8806 -0.007,-0.11224 0.003,-0.22429 0.0286,-0.33699 -0.004,-0.23371 0.38096,-0.70128 1.08593,-1.2181 0.59024,-0.4342 1.58472,-1.0445 2.84493,-1.27885 11.37879,-2.11641 22.72782,-4.39487 34.04383,-6.83463 11.36196,-2.30764 22.71191,-4.676 34.04935,-7.10481 2.6562,-0.56905 5.66798,2.79383 6.30668,7.92953 0,0 0,0 0,0 0.0214,0.17895 0.0425,0.35923 0.058,0.54111 z"
       sodipodi:nodetypes="sssssssssssssssssssssssssssssssss" />
    <path
       id="path3645"
       style="fill:none;fill-opacity:1;stroke:#ffcc0f;stroke-width:3.1902;stroke-linecap:round;stroke-linejoin:round;stroke-dasharray:none;stroke-opacity:1"
       d="m 316.36245,146.47583 c -0.30786,2.78185 -0.74336,5.55784 -1.30673,8.3216 v 0 c -1.21378,5.92798 -3.00856,11.70992 -5.36542,17.28436 v 0 c -2.1749,5.1378 -4.8029,10.04865 -7.85824,14.68966 -0.20894,0.31738 -0.42191,0.61665 -0.6378,0.898 0,0 0,0 0,0 -3.03446,3.95359 -6.3883,4.23775 -8.5215,2.50245 -9.57114,-7.83217 -19.18373,-15.61301 -28.8374,-23.34216 -9.48709,-7.78485 -19.08367,-15.43359 -28.78693,-22.94376 -0.90125,-0.71955 -1.48782,-1.53739 -1.84947,-2.15323 -0.62719,-1.06556 -0.76088,-1.86007 -0.6607,-2.10946 0.0219,-0.0491 0.0432,-0.0982 0.0636,-0.14708 0.14658,-0.34491 0.27158,-0.71579 0.36704,-1.08678 0.0247,-0.0958 0.1123,-0.21116 0.25858,-0.33649 0.39275,-0.3302 2.17332,-1.48264 4.35877,-1.45126 12.30681,0.17675 24.61647,0.17981 36.92525,0.009 12.32911,-0.0231 24.65827,-0.11145 36.98696,-0.26495 2.99015,-0.0372 5.49878,4.39364 4.86397,10.1298 z m -27.88917,56.29423 c -3.71615,3.54359 -7.72186,6.7697 -11.98744,9.65267 v 0 c -4.90939,3.31724 -10.12861,6.15071 -15.60566,8.46921 -3.06765,1.29699 -6.19811,2.42377 -9.38114,3.37716 -4.46673,1.33791 -7.47327,0.22097 -8.67312,-1.77386 -0.27339,-0.45448 -0.46049,-0.95829 -0.56407,-1.49894 -1.24039,-6.57889 -2.50007,-13.15404 -3.77906,-19.72537 -1.08367,-5.56776 -2.18119,-11.13276 -3.29251,-16.69494 -2.25964,-12.06247 -4.69332,-24.09058 -7.29997,-36.08064 -0.45604,-2.25429 0.19818,-4.04138 0.45952,-4.51359 0.10209,-0.18164 0.20653,-0.29859 0.29821,-0.34759 0.33499,-0.16334 0.66897,-0.35654 0.98185,-0.56754 0.0605,-0.0407 0.12087,-0.0826 0.18102,-0.12559 0.22814,-0.1632 1.01408,-0.16908 2.0899,0.16145 0.72089,0.22152 1.72177,0.63507 2.62737,1.41861 9.30754,8.05307 18.72994,15.97405 28.26433,23.76052 9.4552,7.91235 18.95277,15.77445 28.49231,23.58591 2.0079,1.64418 1.57968,5.60809 -1.33375,9.28522 0,0 0,0 0,0 -0.4407,0.55624 -0.9343,1.09905 -1.47779,1.61731 z m -57.55214,25.1714 c -1.92518,0.12083 -3.85155,0.18076 -5.77701,0.17986 -6.16426,0.003 -12.33787,-0.6177 -18.4516,-1.86391 v 0 c -5.92799,-1.21378 -11.70996,-3.00857 -17.28445,-5.36547 -0.19883,-0.0842 -0.39732,-0.169 -0.59545,-0.25452 -5.29453,-2.28519 -6.38709,-5.88151 -4.96109,-8.43917 6.05391,-10.78426 12.04971,-21.60066 17.98711,-32.44873 6.02112,-10.69369 11.88823,-21.47213 17.59935,-32.33209 0.64596,-1.18543 1.50268,-1.98855 2.08335,-2.44958 0.7775,-0.61918 1.38251,-0.83656 1.62711,-0.78507 0.10825,0.0271 0.21643,0.0517 0.32388,0.0735 0.30992,0.0664 0.64949,0.11247 1.00245,0.13868 0.15681,0.0117 0.39066,0.14973 0.66934,0.40743 0.54436,0.49837 1.65999,1.89201 1.97096,3.83988 1.94029,12.1535 4.05464,24.2796 6.34315,36.37451 2.1469,12.14032 4.35928,24.26932 6.63717,36.38647 0.55264,2.93974 -3.4266,6.17747 -9.17427,6.53821 z m -60.22749,-17.71448 c -3.70282,-2.73146 -7.19146,-5.73297 -10.44462,-8.98609 v 0 c -4.14935,-4.1494 -7.88937,-8.68193 -11.18181,-13.55335 v -1e-5 c -2.18245,-3.22992 -4.1555,-6.59398 -5.91029,-10.07737 -1.19939,-2.38087 -1.52611,-4.4749 -1.25092,-6.08159 0.31084,-1.81425 1.37836,-3.0172 2.85899,-3.58309 11.5651,-4.38148 23.10608,-8.82541 34.62246,-13.33162 11.48145,-4.3341 22.89875,-8.83341 34.24824,-13.49683 0.27693,-0.10915 0.5457,-0.19647 0.80175,-0.26668 0,0 0,0 0,0 1.96154,-0.53649 3.46926,-0.18933 3.90985,0.0325 0.1087,0.0551 0.18684,0.11414 0.23203,0.17193 0.25458,0.35096 0.54668,0.69292 0.8548,1.001 0.0185,0.0185 0.0371,0.037 0.0559,0.0553 0.22049,0.21629 0.38106,1.15494 0.13974,2.47809 -0.12537,0.68224 -0.37393,1.56431 -0.89403,2.43331 -6.32078,10.56082 -12.49064,21.21244 -18.50765,31.95164 -6.15473,10.683 -12.25224,21.39922 -18.29225,32.14822 -1.11811,1.98983 -4.31728,2.43502 -7.91659,0.97924 0,0 0,0 0,0 -1.11318,-0.4503 -2.2435,-1.07644 -3.32561,-1.87469 z m -34.75806,-52.27914 c -0.25268,-1.04529 -0.48707,-2.09555 -0.70307,-3.15044 v -1e-5 c -1.2462,-6.11372 -1.86677,-12.28733 -1.86391,-18.45159 -0.003,-6.16426 0.61771,-12.33789 1.86392,-18.45164 v 0 c 0.18089,-0.88345 0.37469,-1.76366 0.58133,-2.64043 1.32304,-5.61364 4.67736,-7.32497 7.44432,-6.36775 11.67578,4.07742 23.37318,8.09166 35.0917,12.04254 11.58113,4.0603 23.21912,7.95332 34.91033,11.67793 1.48228,0.49618 2.52627,1.35769 3.05656,1.87997 0.54364,0.53581 0.78256,0.9997 0.77436,1.24395 -0.0138,0.20206 -0.0212,0.40821 -0.0222,0.61543 8.7e-4,0.28105 0.0144,0.56011 0.0394,0.8297 0.0188,0.2032 -0.15354,0.55545 -0.51299,0.97271 -0.48241,0.55887 -1.62158,1.67144 -3.23842,2.23244 -11.62772,4.03446 -23.19773,8.23649 -34.70638,12.60493 -11.57812,4.23693 -23.13357,8.53651 -34.66584,12.89857 -2.79697,1.05795 -6.68446,-2.29101 -8.04913,-7.93631 z m 6.98732,-62.398529 c 1.81282,-3.65023 3.8643,-7.17093 6.1443,-10.54524 v 0 c 3.29244,-4.871414 7.03246,-9.403946 11.18182,-13.553366 l 1e-5,-10e-7 c 3.13022,-3.130185 6.47846,-6.027414 10.02575,-8.675279 1.36364,-1.017885 2.67689,-1.665217 3.86991,-1.999828 2.77541,-0.778418 4.83203,0.129016 5.90466,1.917131 6.33097,10.62404 12.71875,21.213753 19.16304,31.768673 6.26872,10.550549 12.68756,21.009929 19.25456,31.374909 0.36419,0.59414 0.6052,1.17495 0.76733,1.68065 0,0 0,0 0,0 0.5018,1.56966 0.36028,2.73945 0.18113,3.10014 -0.0229,0.0461 -0.0475,0.0836 -0.0734,0.11228 -0.323,0.33352 -0.62558,0.70232 -0.88213,1.07674 -0.0114,0.0168 -0.0257,0.0336 -0.0423,0.0501 -0.2518,0.24915 -1.34109,0.57691 -2.88023,0.45024 -0.58577,-0.0493 -1.28711,-0.16833 -2.0164,-0.44631 -11.50052,-4.38382 -23.06473,-8.60174 -34.68893,-12.65266 -11.59291,-4.1963 -23.20874,-8.33001 -34.84696,-12.40096 -1.80468,-0.63127 -2.79387,-2.87993 -2.58942,-5.85932 0.11589,-1.683439 0.61353,-3.558019 1.52727,-5.397879 z m 45.40884,-43.285955 c 0.35767,-0.156792 0.71646,-0.311369 1.07637,-0.463722 5.57446,-2.356864 11.35641,-4.151652 17.28438,-5.365438 6.11375,-1.24621 12.28738,-1.866788 18.45162,-1.863918 1.75251,-8.14e-4 3.50575,0.04876 5.25818,0.148776 5.71153,0.325976 7.98181,3.324795 7.52281,6.21799 -1.97337,12.20845 -3.88107,24.427106 -5.72313,36.655437 -1.97381,12.11219 -3.77408,24.251019 -5.4009,36.412729 -0.27109,1.8188 -1.14113,3.09417 -1.65694,3.66015 -0.37381,0.41352 -0.69346,0.62424 -0.88269,0.64973 -0.27638,0.0273 -0.54214,0.0673 -0.78908,0.12023 -0.17094,0.0347 -0.34372,0.0764 -0.51575,0.12419 -0.21344,0.0593 -0.686,-0.1054 -1.29957,-0.51481 -0.6401,-0.42583 -1.7528,-1.28938 -2.4971,-2.62126 C 213.15588,114.67951 206.99769,104.02118 200.68737,93.451691 194.4944,82.790831 188.24409,72.163 181.9367,61.568657 c -1.52969,-2.569388 1.07588,-6.973506 6.39505,-9.305301 z m 62.66508,-3.989721 c 3.35608,0.984311 6.65449,2.160869 9.8833,3.525994 5.47714,2.318548 10.69638,5.152034 15.60575,8.469262 v 2e-6 c 4.12119,2.785394 7.99985,5.891121 11.60919,9.294042 0.72137,0.680119 1.31617,1.365977 1.79206,2.039859 2.24953,3.185493 1.81759,5.958649 -0.0318,7.562297 -9.36734,8.07487 -18.6913,16.19942 -27.97149,24.373319 -9.30628,8.0002 -18.49753,16.13165 -27.5709,24.39192 -0.70898,0.62609 -1.44137,1.02716 -2.03723,1.28392 -1.37987,0.59458 -2.38162,0.5759 -2.63438,0.4184 -0.004,-0.003 -0.008,-0.005 -0.0114,-0.008 -0.3693,-0.24905 -0.76797,-0.47328 -1.16295,-0.65287 -0.0538,-0.0245 -0.11061,-0.0722 -0.16802,-0.14164 -0.2702,-0.33134 -0.8833,-1.74678 -0.82836,-3.59419 0.0105,-0.34415 0.0452,-0.71475 0.11927,-1.10315 2.30526,-12.09002 4.43557,-24.213549 6.39106,-36.366809 2.1041,-12.147872 4.14261,-24.307304 6.11556,-36.477766 0.22373,-1.380198 1.36638,-2.478474 3.14033,-3.099855 2.03407,-0.711532 4.84214,-0.770844 7.76009,0.08496 z m 50.54658,37.210786 c 3.17878,4.76908 5.90382,9.82655 8.14689,15.125349 2.35685,5.57448 4.15164,11.35644 5.36543,17.28439 v 0 c 0.52839,2.59221 0.94431,5.19519 1.24792,7.80366 0.66251,5.69196 -1.90296,8.41999 -4.83188,8.46551 -12.36649,0.15633 -24.73177,0.37807 -37.09533,0.66527 -12.27177,0.13743 -24.53999,0.44807 -36.8009,0.93204 -2.06941,0.0497 -3.66455,-0.81635 -4.17864,-1.15665 -0.2776,-0.18693 -0.43718,-0.36237 -0.47995,-0.49361 -0.0872,-0.30634 -0.19375,-0.60954 -0.31506,-0.89495 -0.0456,-0.10894 -0.0949,-0.21858 -0.14747,-0.3282 -0.10725,-0.22372 -0.002,-0.84871 0.3923,-1.69039 0.32941,-0.70616 0.94634,-1.78272 2.00277,-2.64397 9.53938,-7.77696 18.96842,-15.68996 28.28431,-23.73656 9.42622,-7.946839 18.81024,-15.944119 28.15166,-23.991476 2.18864,-1.885439 6.71381,-0.282873 9.92853,4.183977 0,0 0,0 0,0 0.1119,0.15552 0.22176,0.31409 0.32942,0.47561 z"
       sodipodi:nodetypes="sssssssssssssssssssssssssssssssss"
       clip-path="url(#clipPath3647)"
       transform="matrix(0.82522792,0.45090151,-0.45090151,0.82522792,101.42867,-76.849513)" />
    <circle
       style="fill:none;fill-opacity:1;stroke:#000000;stroke-width:1;stroke-linecap:round;stroke-linejoin:round;stroke-dasharray:none;stroke-opacity:1"
       id="path5887"
       cx="263.66531"
       cy="12.143768"
       r="101.78071"
       transform="rotate(28.65203)" />
  </g>
</svg>
