    <svg
      xmlns="http://www.w3.org/2000/svg"
      width="616.821"
      height="628.194"
      version="1.1"
      viewBox="0 0 163.2 166.21"
    >
      <g
        fill="#000000"
        fillOpacity="1"
        stroke="#000"
        strokeDasharray="none"
        strokeOpacity="1"
        transform="translate(-23.403 -17.154)"
      >
        <path
          strokeWidth="0.765"
          d="M182.463 129.351a82.75 82.75 0 003.718-13.268l-10.517-7.168a71.22 71.22 0 00-.062-17.68l10.488-7.222a82.75 82.75 0 00-6.112-18.67l-12.731.382a71.22 71.22 0 00-10.407-14.302l4.238-12.001a82.75 82.75 0 00-15.888-11.516l-10.078 7.795a71.22 71.22 0 00-5.05-2.13 71.22 71.22 0 00-11.806-3.268l-3.63-12.212a82.75 82.75 0 00-19.641.06l-3.57 12.222a71.22 71.22 0 00-16.796 5.496l-10.106-7.74a82.75 82.75 0 00-15.872 11.564l4.3 11.997a71.22 71.22 0 00-10.379 14.33L29.817 65.7a82.75 82.75 0 00-2.273 5.422 82.75 82.75 0 00-3.718 13.269l10.517 7.168a71.22 71.22 0 00.062 17.68l-10.488 7.222a82.75 82.75 0 006.112 18.67l12.731-.382a71.22 71.22 0 0010.407 14.302l-4.238 12.001a82.75 82.75 0 0015.888 11.516l10.077-7.795a71.22 71.22 0 005.051 2.13 71.22 71.22 0 0011.817 3.308l3.629 12.21a82.75 82.75 0 0019.616-.046l3.57-12.23a71.22 71.22 0 0016.846-5.513l10.113 7.745a82.75 82.75 0 0015.841-11.564l-4.3-11.996a71.22 71.22 0 0010.382-14.363l12.737.322a82.75 82.75 0 002.267-5.424z"
        ></path>
        <circle
          cx="56.883"
          cy="-133.557"
          r="68.993"
          strokeWidth="0.762"
          transform="rotate(110.6)"
        ></circle>
      </g>
      <g display="inline" transform="translate(-23.403 -17.154)">
        <circle
          cx="56.883"
          cy="-133.557"
          r="67.179"
          fill="#FFFFFF"
          fillOpacity="1"
          stroke="#000000"
          strokeDasharray="none"
          strokeOpacity="1"
          strokeWidth="2.765"
          transform="rotate(110.6)"
        ></circle>
      </g>
      <g
        fill="#000000"
        stroke="#FFFFFFF"
        strokeDasharray="none"
        strokeLinecap="butt"
        strokeLinejoin="miter"
        strokeOpacity="1"
        strokeWidth="0.765"
        transform="translate(-23.403 -17.154)"
      >
        <path d="M140.355 143.648c1.441-.493 4.324-1.478 6.64-3.222 2.315-1.745 4.062-4.247 5.734-6.631 1.672-2.384 3.268-4.648 4.076-7.272.808-2.624.829-5.607.647-7.14-.18-1.535-.564-1.62-8.073-4-7.51-2.38-22.144-7.055-29.84-9.448-7.694-2.393-8.45-2.504-8.902-2.396-.453.108-.604.434-.528.93.076.496.38 1.162 5.218 7.803 4.839 6.64 14.213 19.254 18.9 25.561 4.687 6.308 4.687 6.308 6.128 5.815z"></path>
        <path
          fillOpacity="1"
          d="M107.483 156.34c1.416.481 4.247 1.441 7.131 1.445 2.885.004 5.821-.95 8.767-1.948 2.946-.998 5.9-2.042 8.19-3.8 2.29-1.76 3.913-4.234 4.594-5.648.68-1.413.419-1.766-4.247-8.065-4.665-6.299-13.734-18.544-18.558-24.902-4.824-6.357-5.405-6.826-5.87-6.987-.465-.162-.814-.017-1.086.437-.272.453-.466 1.216-.512 9.178-.047 7.963.055 23.126.109 30.96.054 7.836.06 8.344.063 8.597.003.254.003.254 1.42.734z"
        ></path>
        <path d="M73.775 147.119c.872 1.189 2.615 3.568 5.09 5.276 2.475 1.708 5.683 2.745 8.655 3.698 2.972.953 5.71 1.82 8.572 1.77 2.863-.051 5.853-1.022 7.33-1.78 1.476-.757 1.44-1.302 1.382-9.175-.058-7.873-.137-23.073-.323-31.004-.187-7.932-.48-8.594-.83-8.973-.35-.378-.757-.473-1.317-.32-.56.154-1.274.555-6.029 6.897-4.754 6.343-13.548 18.627-18.122 25.021-4.573 6.394-4.927 6.897-5.103 7.149-.176.251-.176.251.695 1.44z"></path>
        <path d="M52.329 119.943c-.009 1.533-.026 4.6.915 7.38.94 2.781 2.839 5.277 4.702 7.751 1.864 2.475 3.692 4.93 6.06 6.622 2.367 1.693 5.274 2.624 6.943 2.78 1.67.157 2.102-.463 6.674-6.884 4.573-6.42 13.286-18.643 17.714-25.112 4.429-6.47 4.573-7.185 4.516-7.699-.057-.514-.315-.827-.84-1-.527-.171-1.322-.202-8.88 2.138-7.56 2.34-21.882 7.05-29.308 9.526-7.427 2.477-7.957 2.72-8.222 2.842-.265.122-.266.122-.274 1.656z"></path>
        <path d="M50.98 116.024c-.891-1.215-2.673-3.646-3.583-7.87-.911-4.226-.95-10.246-.09-14.574.86-4.329 2.62-6.965 3.799-8.192 1.179-1.227 1.776-1.045 9.325 1.329 7.549 2.374 22.048 6.94 29.557 9.482 7.51 2.541 8.029 3.058 8.285 3.5.257.444.25.813-.055 1.25-.306.437-.91.943-8.442 3.597s-21.99 7.456-29.461 9.93c-7.472 2.474-7.958 2.618-8.201 2.69-.243.073-.243.073-1.134-1.142z"></path>
        <path d="M70.185 56.517c-1.684.438-4.85 1.688-7.273 3.49-2.424 1.803-4.107 4.157-5.822 6.546-1.715 2.39-3.462 4.812-4.317 7.56-.855 2.75-.82 5.824-.254 7.548.567 1.723 1.664 2.095 9.196 4.483 7.53 2.389 21.496 6.792 28.818 8.968 7.323 2.175 8.003 2.123 8.505 1.878a1.59 1.59 0 00.905-1.268c.078-.585-.094-1.315-4.747-7.822-4.654-6.507-13.789-18.79-18.457-25.118-4.669-6.329-4.87-6.703-6.554-6.265z"></path>
        <path d="M102.95 44.183c-1.216-.566-3.65-1.699-6.645-1.687-2.996.013-6.553 1.169-9.782 2.23-3.229 1.063-6.13 2.03-8.412 3.78-2.282 1.75-3.945 4.282-4.552 5.853-.606 1.572-.157 2.184 4.516 8.508 4.672 6.325 13.567 18.36 18.269 24.576 4.702 6.216 5.21 6.61 5.699 6.768.489.157.96.076 1.353-.301.395-.377.713-1.05.843-9s.073-23.173.03-31.08c-.044-7.906-.073-8.493-.087-8.787-.014-.294-.015-.294-1.231-.86z"></path>
        <path d="M135.989 53.62c-.795-1.256-2.383-3.768-4.779-5.507-2.395-1.739-5.596-2.705-8.646-3.669-3.05-.963-5.948-1.925-8.82-1.866-2.872.06-5.717 1.139-7.116 9.552-1.399 8.412-1.352 24.158-1.186 32.369.167 8.21.453 8.887.797 9.286.345.4.747.52 1.246.356.498-.164 1.092-.614 5.746-6.905s13.367-18.423 17.97-24.79c4.601-6.367 5.092-6.968 5.337-7.269.245-.3.245-.3-.55-1.557z"></path>
        <path d="M157.283 81.064c.518-1.494.85-4.248-.134-7.13-.983-2.884-3.281-5.896-5.302-8.633-2.02-2.738-3.763-5.2-6.097-6.795-2.334-1.593-5.257-2.318-11.307 3.703-6.05 6.021-15.226 18.787-19.93 25.535-4.705 6.748-4.939 7.478-4.885 8.027.053.55.393.92.964 1.133.57.213 1.37.268 8.868-2.071 7.5-2.34 21.696-7.073 29.148-9.557 7.451-2.484 8.157-2.718 8.675-4.212z"></path>
        <path
          fillOpacity="1"
          d="M158.816 115.374c.935-1.061 2.806-3.185 3.73-5.984.925-2.799.902-6.274.884-9.875-.018-3.601-.032-7.33-.98-10.02-.947-2.69-2.828-4.343-11.257-2.732-8.428 1.61-23.402 6.485-31.183 9.159-7.78 2.674-8.366 3.147-8.643 3.616-.276.47-.243.936.08 1.431.324.495.939 1.019 8.408 3.554 7.47 2.534 21.795 7.08 29.275 9.4 7.48 2.322 8.115 2.417 8.433 2.465.318.048.318.048 1.253-1.014z"
        ></path>
      </g>
    </svg>